<?xml version="1.0" encoding="UTF-8" standalone="no"?>
<!-- Created with Inkscape (http://www.inkscape.org/) -->

<svg
   width="175.41875mm"
   height="48.468361mm"
   viewBox="0 0 175.41875 48.468361"
   version="1.1"
   id="svg1"
   xmlns:inkscape="http://www.inkscape.org/namespaces/inkscape"
   xmlns:sodipodi="http://sodipodi.sourceforge.net/DTD/sodipodi-0.dtd"
   xmlns="http://www.w3.org/2000/svg"
   xmlns:svg="http://www.w3.org/2000/svg">
  <sodipodi:namedview
     id="namedview1"
     pagecolor="#505050"
     bordercolor="#eeeeee"
     borderopacity="1"
     inkscape:showpageshadow="0"
     inkscape:pageopacity="0"
     inkscape:pagecheckerboard="0"
     inkscape:deskcolor="#505050"
     inkscape:document-units="mm">
    <inkscape:page
       x="0"
       y="0"
       width="175.41875"
       height="48.468361"
       id="page2"
       margin="0"
       bleed="0" />
  </sodipodi:namedview>
  <defs
     id="defs1" />
  <g
     inkscape:label="Layer 1"
     inkscape:groupmode="layer"
     id="layer1"
     transform="translate(-18.62809,-63.960535)">
    <path
       style="font-size:50.8px;font-family:'Glass Houses';-inkscape-font-specification:'Glass Houses, Normal';fill:#ffffff;stroke-width:2.7;stroke-linecap:square;paint-order:stroke fill markers"
       d="m 21.406216,66.143348 7.242969,-2.182813 -1.488282,3.522266 q 0.84336,-0.04961 1.686719,-0.198438 0.843359,-0.198437 1.686719,-0.396875 0.892969,-0.248047 1.736328,-0.446484 0.843359,-0.248047 1.686719,-0.446484 0.892968,-0.198438 1.736328,-0.297657 0.843359,-0.09922 1.686718,-0.04961 0.892969,0.04961 1.736329,0.297656 0.892968,0.248047 1.785937,0.744141 l -0.446484,0.694531 q 1.885156,0.248047 3.12539,0.992188 1.289844,0.74414 2.083594,1.934765 0.843359,1.141016 1.289844,2.678906 0.496093,1.488282 0.843359,3.22461 l 1.984375,-2.232422 q 0.595313,2.182812 0.744141,4.514453 0.198437,2.331641 -0.04961,4.71289 -0.248047,2.331641 -0.892968,4.663282 -0.644922,2.282031 -1.736329,4.415234 -1.091406,2.083594 -2.579687,3.919141 -1.488281,1.785937 -3.423047,3.224609 -1.934765,1.438673 -4.316015,2.381253 -2.331641,0.89297 -5.109766,1.19062 l 1.537891,-3.075779 -10.864453,1.835549 0.992187,-6.697268 -4.514453,5.506638 4.613672,-27.58281 -5.55625,7.739063 z m 8.086328,6.746875 -2.728516,16.966406 4.861719,-7.14375 -1.885156,11.90625 q 2.182812,-0.09922 3.819922,-0.595313 1.686718,-0.496094 2.877343,-1.289844 1.240235,-0.79375 2.033985,-1.785937 0.843359,-0.992188 1.389062,-2.083594 0.595313,-1.091406 0.892969,-2.232422 0.347266,-1.190625 0.545703,-2.282031 0.198438,-1.091406 0.297656,-2.083594 0.148828,-1.041797 0.297657,-1.785937 0.09922,-0.545703 0.09922,-1.091406 0,-0.595313 -0.148828,-1.141016 -0.09922,-0.595312 -0.297656,-1.141016 -0.19844,-0.595312 -0.545705,-1.091406 Q 40.704263,75.46991 40.257778,75.073035 39.860903,74.626551 39.3152,74.328894 38.819106,74.031238 38.174184,73.932019 37.529263,73.783191 36.735513,73.88241 l 0.297656,-1.438672 q -0.396875,-0.09922 -0.79375,-0.198437 -0.347266,-0.09922 -0.744141,-0.198438 -0.347265,-0.09922 -0.74414,-0.148828 -0.396875,-0.09922 -0.79375,-0.09922 -0.545703,0.04961 -1.091407,0.148829 -0.545703,0.09922 -1.091406,0.248046 -0.545703,0.148829 -1.141015,0.347266 -0.545704,0.198437 -1.141016,0.347267 z m 15.726172,8.68164 -8.383985,14.485937 q 1.438672,-0.198437 2.43086,-0.74414 1.041797,-0.595313 1.785937,-1.339453 0.79375,-0.79375 1.389063,-1.686719 0.595312,-0.942578 1.141015,-1.885156 0.545703,-0.992188 0.79375,-2.083594 0.248047,-1.091406 0.347266,-2.232422 0.148828,-1.141015 0.198437,-2.282031 0.09922,-1.141016 0.297657,-2.232422 z m 10.269141,-14.634765 4.7625,-1.190625 -0.297656,2.33164 3.869531,-0.248047 -1.091406,10.070703 q 0.644922,-0.595312 1.389063,-1.141015 0.793749,-0.595313 1.637109,-1.041797 0.843359,-0.496094 1.785937,-0.79375 0.992188,-0.297656 2.033985,-0.297656 l -1.389063,3.621484 q 0.595313,-0.198437 1.141016,-0.446484 0.545703,-0.297657 1.091406,-0.496094 0.545703,-0.248047 1.091406,-0.396875 0.595313,-0.148828 1.141016,-0.148828 1.289844,0.09922 2.182812,0.595312 0.892969,0.446485 1.438672,1.240235 0.545703,0.74414 0.744141,1.785937 0.198437,0.992188 0.04961,2.083594 l -0.446484,3.770312 3.423047,-3.869531 q 0.248047,0.694531 0.297656,1.637109 0.04961,0.942579 -0.04961,2.083594 -0.04961,1.091406 -0.248047,2.38125 -0.198438,1.289844 -0.446485,2.629297 -0.198437,1.339453 -0.496093,2.778125 -0.248047,1.389062 -0.545704,2.778125 -0.248046,1.389062 -0.496093,2.728515 -0.198438,1.289842 -0.347266,2.530082 l -4.613672,0.79375 1.537891,-11.707816 -4.564063,6.002735 1.488282,-10.219532 q 0.09922,-0.892968 0,-1.5875 -0.09922,-0.694531 -0.396875,-1.141015 -0.248047,-0.496094 -0.694532,-0.694531 -0.396875,-0.248047 -0.892968,-0.198438 -0.942578,0.04961 -1.736328,0.496094 -0.744141,0.446484 -1.389063,1.240234 -0.595312,0.744141 -1.091406,1.785938 -0.446485,0.992187 -0.744141,2.232422 l -2.232422,13.245699 -4.71289,0.89297 0.644922,-7.937498 -4.365625,5.407418 4.316015,-28.128511 -4.663281,6.250781 z m 10.417969,13.989843 q -1.190625,0.446485 -2.033984,1.289844 -0.84336,0.79375 -1.438672,1.785937 -0.347266,0.694532 -0.644922,1.438672 -0.248047,0.694532 -0.446484,1.488282 -0.198438,0.74414 -0.347266,1.53789 -0.09922,0.744141 -0.148828,1.488281 0.74414,-1.041796 1.438672,-2.133203 0.694531,-1.141015 1.289843,-2.282031 0.644922,-1.141016 1.190625,-2.282031 0.595313,-1.190625 1.141016,-2.331641 z m 24.01094,-15.180468 v 2.827734 l 3.571875,-0.396875 -0.744141,5.258594 -4.812109,0.942578 v -2.778125 l -3.671094,0.347266 0.644922,-5.159375 z m -3.720703,9.47539 -2.976563,4.564063 0.396875,-3.869532 z m 5.953125,1.736328 -2.182813,14.436328 5.010547,-6.895703 -3.125391,17.611324 -4.960937,0.89297 1.488281,-7.540622 -4.911328,5.754692 3.671094,-23.068364 z m 20.538272,-0.198437 -0.5457,1.041797 q 1.19063,0.148828 2.18281,0.446484 0.99219,0.297656 1.63711,0.992188 0.69453,0.644921 1.09141,1.785937 0.39687,1.141016 0.39687,3.075781 l -3.91914,0.79375 q -0.14882,-0.545703 -0.34726,-1.041797 -0.19844,-0.496093 -0.4961,-0.843359 -0.24804,-0.347266 -0.59531,-0.545703 -0.29765,-0.248047 -0.69453,-0.198438 l -1.88516,0.09922 0.39688,-0.843359 q -0.39688,-0.644922 -0.99219,-0.942578 -0.5457,-0.347266 -1.19062,-0.347266 -0.39688,0 -0.99219,0.148828 -0.5457,0.148828 -1.09141,0.496094 -0.49609,0.297656 -0.94257,0.79375 -0.39688,0.496094 -0.59532,1.190625 -0.0496,0.198437 0,0.396875 0.0992,0.198437 0.24805,0.396875 0.14883,0.198437 0.29766,0.396875 0.14882,0.148828 0.24804,0.347265 l 2.67891,0.446485 q -0.0496,0.545703 0.0992,1.041797 0.14883,0.496093 0.5457,0.694531 0.24805,0.148828 0.64492,0.198437 0.39688,0.04961 0.89297,0.09922 0.5457,0 1.09141,0.04961 0.59531,0.04961 1.19062,0.148828 0.59531,0.09922 1.19063,0.297656 0.64492,0.198437 1.19062,0.545703 0.54571,0.297656 1.0418,0.79375 0.49609,0.496094 0.84336,1.190625 0.14883,-0.04961 0.24805,-0.148828 0.14882,-0.148828 0.24804,-0.248047 0.14883,-0.09922 0.34727,-0.04961 0.19844,0.04961 0.49609,0.297656 0.19844,0.198437 0.5457,0.545703 0.34727,0.347266 0.59532,0.843359 0.29765,0.446485 0.44648,0.942578 0.19844,0.496094 0.0992,0.992188 -0.39687,2.282031 -1.38906,4.067969 -0.99219,1.785937 -2.43086,3.075782 -1.43867,1.24023 -3.27422,1.98437 -1.83555,0.69453 -3.96875,0.79375 l 1.5875,-3.174996 q -0.64492,0.148828 -1.33945,0.347266 -0.64493,0.19844 -1.33946,0.39687 -0.64492,0.14883 -1.33945,0.24805 -0.64492,0.0992 -1.28984,0.0992 -2.18282,-0.0496 -3.32383,-1.190625 -1.09141,-1.141016 -1.389064,-3.522265 l -1.934765,1.240234 q -0.545703,-0.892969 -0.84336,-1.736328 -0.297656,-0.892969 -0.347265,-1.934766 -0.04961,-0.396875 0,-0.79375 0.04961,-0.396875 0.09922,-0.79375 l 4.365624,-0.595312 -0.19844,0.892968 q 0.14883,0.644922 0.34727,0.992188 0.24804,0.297656 0.59531,0.496094 l 2.38125,-0.446485 q 0.0496,0.545703 0.19844,1.141016 0.14883,0.595312 0.34726,1.091406 0.24805,0.446485 0.59532,0.79375 0.34726,0.297656 0.84335,0.297656 0.34727,0 0.74415,-0.09922 0.44648,-0.09922 0.84335,-0.248047 0.39688,-0.148828 0.79375,-0.347266 0.44649,-0.198437 0.79375,-0.446484 0.34727,-0.248047 0.64493,-0.496094 0.34726,-0.297656 0.5457,-0.545703 0.24805,-0.297656 0.34727,-0.595313 0.0992,-0.297656 0.0992,-0.545703 -0.0496,-0.496093 -0.19843,-0.79375 -0.14883,-0.297656 -0.39688,-0.446484 -0.19844,-0.198438 -0.49609,-0.297656 -0.29766,-0.09922 -0.54571,-0.198438 -0.69453,-0.248047 -1.43867,-0.347265 -0.69453,-0.09922 -1.43867,-0.148829 -0.69453,-0.09922 -1.38906,-0.198437 -0.69453,-0.148828 -1.33945,-0.347266 l 0.29765,-0.942578 q -1.04179,-0.198437 -1.98437,-0.496094 -0.89297,-0.347265 -1.53789,-0.843359 -0.644925,-0.496094 -0.99219,-1.240234 -0.297656,-0.744141 -0.148828,-1.785938 0.09922,-0.694531 0.248047,-1.438672 0.198437,-0.74414 0.446481,-1.488281 0.29766,-0.79375 0.69453,-1.53789 0.44649,-0.744141 0.99219,-1.438672 0.5457,-0.694531 1.24024,-1.289844 0.74414,-0.595312 1.6371,-1.041797 0.89297,-0.446484 1.98438,-0.694531 1.14101,-0.248047 2.48047,-0.297656 0.44648,0 0.84336,0.09922 0.44648,0.04961 0.89297,0.148829 0.44648,0.04961 0.84336,0.148828 0.44648,0.09922 0.89296,0.148828 z m 0.89297,18.008203 -2.43086,3.96875 q 0.39688,-0.248047 0.84336,-0.496094 0.4961,-0.297656 0.89297,-0.644922 0.44649,-0.347266 0.74414,-0.843359 0.34727,-0.496094 0.44649,-1.190625 0,-0.09922 -0.0496,-0.198438 -0.0496,-0.09922 -0.14883,-0.198437 -0.0496,-0.09922 -0.14883,-0.198438 -0.0992,-0.09922 -0.14883,-0.198437 z m 15.47813,-19.446875 0.34727,1.686719 1.73632,-1.190625 -0.79375,2.083593 2.33165,-0.198437 0.34726,1.289844 q 0.79375,-0.644922 1.5875,-1.240235 0.84336,-0.595312 1.68672,-1.041797 0.89297,-0.496093 1.78594,-0.74414 0.94258,-0.248047 1.88515,-0.248047 0.89297,0.04961 1.73633,0.248047 0.89297,0.198437 1.73633,0.545703 0.84336,0.347266 1.5875,0.843359 0.79375,0.496094 1.43867,1.141016 0.69453,0.644922 1.19063,1.438672 0.5457,0.79375 0.89297,1.686718 0.34726,0.892969 0.49609,1.934766 0.19844,1.041797 0.0992,2.182813 -0.0992,1.339453 -0.34727,2.778125 -0.24804,1.438671 -0.64492,2.926953 -0.39687,1.438671 -0.99219,2.877343 -0.5457,1.389063 -1.28984,2.678907 -0.74414,1.289843 -1.63711,2.430859 -0.89297,1.141012 -1.98438,2.033982 -1.04179,0.84336 -2.28203,1.38906 -1.24023,0.4961 -2.6789,0.69454 -0.54571,0.0496 -1.14102,-0.14883 -0.5457,-0.14883 -1.0914,-0.39688 -0.4961,-0.29765 -0.99219,-0.64492 -0.4961,-0.39687 -0.94258,-0.74414 l -1.83555,9.82266 -5.15937,0.99218 1.04179,-5.01054 -4.61367,2.72851 4.26641,-25.896091 -4.86172,6.647656 2.23242,-14.287499 z m 0.5457,24.55664 -0.94257,3.919138 1.93476,-3.175 z m 7.88789,-18.553906 q -0.64492,0 -1.28984,0.297656 -0.64492,0.248047 -1.24023,0.744141 -0.59532,0.446484 -1.14102,1.091406 -0.5457,0.644922 -0.99219,1.389063 -0.44648,0.74414 -0.84336,1.5875 -0.39687,0.843359 -0.64492,1.686719 -0.24804,0.843359 -0.39687,1.686718 -0.0992,0.79375 -0.0496,1.537891 0,0.595312 0.0992,1.289844 0.0992,0.694531 0.29765,1.339453 0.24805,0.595312 0.69453,1.091406 0.44649,0.496094 1.19063,0.744141 0.19844,0.04961 0.34726,0 0.14883,-0.09922 0.29766,-0.198438 0.19844,-0.148828 0.34727,-0.297656 0.14882,-0.198438 0.29765,-0.248047 0.19844,0.545703 0.34727,1.041797 0.19844,0.446484 0.5457,0.843359 0.34727,0.347266 0.84336,0.545703 0.5457,0.198438 1.38906,0.198438 0.74414,0 1.33946,-0.248047 0.64492,-0.248047 1.19062,-0.694531 0.59531,-0.446485 1.0418,-1.091407 0.49609,-0.644921 0.84336,-1.339453 0.39687,-0.74414 0.69453,-1.5875 0.29766,-0.843359 0.49609,-1.686718 0.24805,-0.84336 0.39688,-1.686719 0.14883,-0.843359 0.24804,-1.637109 0.0496,-0.595313 -0.0992,-1.240235 -0.14883,-0.644922 -0.44649,-1.240234 -0.29765,-0.595313 -0.74414,-0.992188 -0.39687,-0.446484 -0.84336,-0.595312 -0.19844,-0.04961 -0.34726,0.04961 -0.14883,0.09922 -0.29766,0.248047 -0.14883,0.148828 -0.29766,0.297656 -0.0992,0.148828 -0.24804,0.297657 -0.19844,-0.595313 -0.4961,-1.141016 -0.29765,-0.595313 -0.69453,-1.041797 -0.34726,-0.446484 -0.84336,-0.694531 -0.44648,-0.297656 -0.99219,-0.347266 z m 26.59062,-5.060156 q 0.24805,0 0.54571,0 0.29765,0 0.5457,0.04961 0.29765,0.04961 0.49609,0.198438 0.24805,0.09922 0.39688,0.396875 l -0.64492,1.488281 q 0.44648,-0.04961 0.84335,-0.09922 0.39688,-0.09922 0.84336,-0.148828 0.84336,-0.09922 1.48829,0.04961 0.69453,0.148828 1.19062,0.496093 0.49609,0.347266 0.89297,0.892969 0.39687,0.496094 0.64492,1.141016 0.29766,0.644922 0.49609,1.438672 0.24805,0.74414 0.39688,1.5875 0.14883,0.79375 0.24805,1.637109 0.14882,0.843359 0.29765,1.637109 l 2.13321,-2.728515 q 0.39687,0.992187 0.44648,1.984375 0.0992,0.992187 0.14883,1.984375 0,0.396875 0,0.843359 0.0496,0.396875 0,0.843359 0,0.396875 -0.0992,0.79375 -0.0496,0.347266 -0.24805,0.694532 -0.49609,0.09922 -1.14101,0.248046 -0.64492,0.148829 -1.33946,0.297657 -0.69453,0.148828 -1.38906,0.297656 -0.69453,0.148828 -1.33945,0.297656 0.0496,-0.347265 0.14883,-0.694531 0.14882,-0.347266 0.24804,-0.694531 0.14883,-0.347266 0.19844,-0.694532 0.0992,-0.347265 0.14883,-0.74414 -2.77813,0.595312 -5.50664,1.141015 -2.72852,0.545704 -5.50664,1.091407 -0.0496,0.09922 -0.14883,0.248047 -0.0496,0.148828 -0.14883,0.297656 -0.0496,0.09922 -0.0992,0.248047 -0.0496,0.09922 -0.0496,0.248047 0.14883,0.694531 0.39688,1.339453 0.24805,0.595312 0.59531,1.041797 0.34727,0.446484 0.79375,0.694531 0.49609,0.248047 1.09141,0.248047 0.49609,0 1.0914,-0.198438 0.59532,-0.198437 1.19063,-0.545703 0.59531,-0.347266 1.14101,-0.843359 0.54571,-0.545703 0.89297,-1.141016 0.24805,-0.347266 0.64492,-0.545703 0.39688,-0.198438 0.79375,-0.297656 0.19844,-0.09922 0.4961,-0.09922 0.29765,0 0.5457,0 l -2.87734,5.705078 q 0.64492,-0.198438 1.19062,-0.545703 0.59532,-0.396875 1.0418,-0.843359 0.49609,-0.496094 0.89297,-0.992188 0.39687,-0.545703 0.79375,-1.041797 1.0418,-0.04961 2.1332,-0.148828 1.09141,-0.09922 2.1332,-0.148828 -0.29765,0.79375 -0.74414,1.5875 -0.44648,0.79375 -0.99218,1.5875 -0.4961,0.74414 -1.14102,1.438672 -0.59531,0.644922 -1.33945,1.240231 -0.69453,0.59532 -1.48828,1.09141 -0.74414,0.44648 -1.5875,0.79375 -0.79375,0.29766 -1.63711,0.44648 -0.84336,0.14883 -1.73633,0.0992 l 1.38906,-2.82773 q -0.5457,0.0992 -1.19062,0.24805 -0.64493,0.14882 -1.24024,0.29765 -0.59531,0.0992 -1.19062,0.19844 -0.54571,0.0992 -0.94258,0.0992 -1.33945,-0.0992 -2.23242,-0.44649 -0.89297,-0.34726 -1.53789,-0.942575 -0.59532,-0.644922 -0.99219,-1.488281 -0.39688,-0.892969 -0.69453,-1.984375 l -1.63711,1.488281 q -0.19844,-0.248047 -0.39688,-0.595312 -0.14882,-0.396875 -0.29765,-0.84336 -0.14883,-0.446484 -0.29766,-0.892969 -0.0992,-0.496093 -0.19844,-0.942578 -0.0992,-0.496093 -0.19843,-0.942578 -0.0496,-0.446484 -0.0992,-0.79375 -0.0496,-0.396875 -0.0992,-0.644922 0,-0.297656 0,-0.446484 0.0992,-1.091406 0.29765,-2.282031 0.24805,-1.240235 0.64493,-2.530078 0.44648,-1.289844 1.04179,-2.579688 0.59532,-1.289844 1.38907,-2.430859 0.79375,-1.190625 1.73632,-2.182813 0.94258,-0.992187 2.0836,-1.736328 1.14101,-0.74414 2.43086,-1.141015 1.28984,-0.396875 2.77812,-0.347266 z m -5.50664,13.44414 q -0.59531,0.148829 -1.24023,0.347266 -0.64492,0.148828 -1.28985,0.297656 0,0.694532 0.0496,1.339453 0.0496,0.644922 0.29766,1.240235 0.34726,-0.198438 0.64492,-0.545703 0.34727,-0.347266 0.64492,-0.744141 0.29766,-0.446484 0.4961,-0.892969 0.24804,-0.496093 0.39687,-1.041797 z m -1.43867,-4.266406 3.96875,-0.248047 q -0.0496,0.297657 -0.19844,0.644922 -0.0992,0.297657 -0.19844,0.644922 -0.0992,0.297656 -0.19843,0.595313 -0.0496,0.297656 -0.0992,0.545703 l 7.4414,-1.488281 q 0,-0.595313 -0.14882,-1.190625 -0.14883,-0.595313 -0.44649,-1.091407 -0.24804,-0.496093 -0.69453,-0.79375 -0.44648,-0.347265 -1.09141,-0.396875 -0.34726,-0.04961 -0.69453,0.04961 -0.34726,0.09922 -0.69453,0.248047 -0.34726,0.148828 -0.69453,0.347265 -0.34726,0.148828 -0.69453,0.248047 0.29766,-0.545703 0.5457,-1.091406 0.24805,-0.545703 0.54571,-1.091406 -0.39688,-0.09922 -0.79375,-0.198438 -0.39688,-0.148828 -0.79375,-0.148828 -0.59532,-0.04961 -1.14102,0.09922 -0.5457,0.09922 -0.99219,0.347265 -0.39687,0.198438 -0.79375,0.496094 -0.34726,0.297656 -0.64492,0.694531 -0.29766,0.347266 -0.5457,0.744141 -0.19844,0.347266 -0.39688,0.744141 -0.19843,0.347265 -0.34726,0.694531 -0.0992,0.347265 -0.19844,0.595312 z m 27.9797,-8.483203 -0.0496,1.835547 2.6789,-2.530078 -2.03398,4.663281 q 0.29766,-0.297656 0.59531,-0.644922 0.34727,-0.347265 0.69453,-0.644921 0.34727,-0.297657 0.69453,-0.396875 0.34727,-0.148829 0.74414,-0.04961 v 1.785938 q 0.24805,-0.198438 0.4961,-0.496094 0.29765,-0.297656 0.5457,-0.595313 0.29766,-0.297656 0.59531,-0.595312 0.29766,-0.347266 0.59532,-0.644922 0.34726,-0.297656 0.69453,-0.496094 0.34726,-0.248047 0.74414,-0.347265 0.44648,-0.148828 0.89297,-0.148828 0.49609,-0.04961 1.04179,0.09922 l -0.84336,4.564063 q -1.24023,0.297656 -2.33164,0.992187 -1.04179,0.644922 -1.88515,1.537891 -0.79375,0.843359 -1.33946,1.885156 -0.5457,0.992188 -0.79375,1.984375 l -2.72851,11.459765 -4.46484,0.74414 3.91914,-16.073436 -5.95313,8.036718 3.22461,-15.180468 z m 3.42304,19.942969 q -0.14882,0.644922 -0.29765,1.289843 -0.0992,0.644922 -0.24805,1.339454 -0.0992,0.644923 -0.29766,1.289843 -0.14882,0.64492 -0.44648,1.33945 l -2.43086,0.84336 q 0.29766,-0.89297 0.74414,-1.63711 0.44649,-0.79375 0.94258,-1.537887 0.5457,-0.744141 1.0418,-1.438672 0.5457,-0.744141 0.99218,-1.488281 z"
       id="text1"
       aria-label="Dhisper" />
  </g>
</svg>
